<svg width="166" height="106" fill="none" xmlns="http://www.w3.org/2000/svg"><path d="M6.477 93.148c0 .72-.178 1.323-.532 1.813-.354.484-.854.82-1.5 1.008v.062c.72.115 1.274.396 1.664.844.396.448.594 1.057.594 1.828 0 1.052-.328 1.891-.984 2.516-.651.625-1.545.937-2.68.937-1.01 0-1.86-.179-2.547-.539v-1.906c.344.208.716.372 1.117.492s.787.18 1.157.18c.604 0 1.06-.138 1.367-.414.307-.281.46-.724.46-1.328 0-1.141-.7-1.711-2.1-1.711h-.65v-1.586h.618c.62 0 1.094-.146 1.422-.438.333-.291.5-.726.5-1.304 0-.454-.107-.795-.32-1.024-.209-.234-.506-.351-.891-.351-.589 0-1.162.25-1.719.75l-.96-1.407c.77-.77 1.741-1.156 2.913-1.156.964 0 1.716.245 2.258.734.542.485.813 1.151.813 2zm5.636 1.704c.859 0 1.541.299 2.046.898.51.599.766 1.42.766 2.46 0 1.246-.318 2.214-.953 2.907-.63.693-1.508 1.039-2.633 1.039-1 0-1.81-.19-2.43-.57v-1.984c.266.192.607.364 1.024.515a3.6 3.6 0 001.172.219c1.12 0 1.68-.651 1.68-1.953 0-1.214-.545-1.82-1.633-1.82-.433 0-.891.083-1.375.25l-.688-.508.352-5.727h4.875v1.899H11.26l-.156 2.468a4.844 4.844 0 011.008-.093zm11.128 1.437c0 2.068-.25 3.563-.75 4.484-.495.922-1.295 1.383-2.399 1.383s-1.898-.463-2.383-1.39c-.479-.928-.718-2.42-.718-4.477 0-2.062.252-3.56.757-4.492.506-.932 1.297-1.399 2.375-1.399 1.1 0 1.894.456 2.383 1.368.49.911.735 2.419.735 4.523zm-4.125 0c0 1.599.067 2.677.203 3.234.14.553.403.829.789.829.26 0 .46-.12.601-.36.146-.24.25-.635.313-1.187.062-.558.094-1.396.094-2.516 0-1.573-.073-2.646-.22-3.219-.145-.573-.408-.86-.788-.86-.386 0-.649.287-.79.86-.135.568-.202 1.64-.202 3.22z" fill="#D1A954"/><path d="M36.56 102h-2.087v-7.023H33.31c-.104 1.765-.273 3.166-.507 4.203-.23 1.036-.54 1.789-.93 2.258-.386.468-.899.703-1.54.703-.39 0-.71-.058-.96-.172v-1.711a1.5 1.5 0 00.476.078c.438 0 .78-.557 1.024-1.672.245-1.12.432-2.909.562-5.367h5.125V102zm5.768.156c-1.088 0-1.948-.385-2.578-1.156-.625-.776-.938-1.872-.938-3.29 0-1.437.284-2.559.852-3.366.568-.807 1.36-1.211 2.375-1.211.948 0 1.695.346 2.242 1.039.547.687.82 1.654.82 2.898v1.11h-4.18c.017.776.175 1.354.477 1.734.302.375.72.563 1.25.563.677 0 1.37-.211 2.079-.633v1.711c-.667.401-1.467.601-2.399.601zm-.305-7.422c-.296 0-.541.16-.734.477-.193.312-.305.8-.336 1.46h2.11c-.01-.635-.107-1.116-.29-1.444-.182-.329-.432-.493-.75-.493zm10.613-1.437v1.68h-1.938V102H48.62v-7.023h-1.937v-1.68h5.953zm8.655 0v4.031c0 .5-.063 1.33-.188 2.492l2.828-6.523h2.547V102h-1.937v-4.094c0-.614.06-1.443.18-2.484L61.883 102H59.36v-8.703h1.93zm10.636 8.859c-1.037 0-1.826-.377-2.368-1.133-.541-.755-.812-1.864-.812-3.328 0-1.53.255-2.674.766-3.43.515-.755 1.31-1.132 2.382-1.132.323 0 .662.047 1.016.14.354.094.672.23.953.407l-.594 1.617c-.432-.255-.815-.383-1.148-.383-.443 0-.763.232-.961.695-.193.459-.29 1.149-.29 2.07 0 .902.097 1.576.29 2.024.193.443.508.664.945.664.521 0 1.065-.182 1.633-.547v1.828a3.372 3.372 0 01-1.812.508zm9.221-8.86v1.68h-1.937V102h-2.078v-7.023h-1.938v-1.68h5.953zm8.168 4.337c0 1.427-.303 2.539-.907 3.336-.604.791-1.432 1.187-2.484 1.187-.667 0-1.255-.182-1.766-.547-.51-.364-.903-.888-1.18-1.57-.275-.687-.413-1.49-.413-2.406 0-1.412.3-2.513.898-3.305.599-.797 1.43-1.195 2.492-1.195 1.026 0 1.841.406 2.446 1.219.609.807.914 1.9.914 3.28zm-4.625 0c0 .906.099 1.591.296 2.055.198.463.516.695.954.695.833 0 1.25-.917 1.25-2.75 0-.912-.102-1.591-.305-2.04-.198-.452-.513-.679-.945-.679-.438 0-.756.227-.954.68-.197.448-.296 1.127-.296 2.039zm10.768 4.523c-.375 0-.708-.083-1-.25-.286-.172-.554-.471-.804-.898h-.11c.084.708.125 1.135.125 1.281v3.555h-2.093V93.297h1.609l.36 1.133h.093c.432-.865 1.06-1.297 1.883-1.297.791 0 1.411.393 1.86 1.18.447.78.671 1.888.671 3.32 0 1.411-.232 2.518-.695 3.32-.464.802-1.097 1.203-1.899 1.203zm-.64-7.258c-.407 0-.7.19-.883.57-.177.376-.27 1-.281 1.876v.273c0 .959.09 1.656.273 2.094.182.437.484.656.906.656.73 0 1.094-.922 1.094-2.765 0-.907-.091-1.584-.273-2.032-.177-.448-.456-.672-.836-.672zm7.425-1.601v4.031c0 .5-.063 1.33-.188 2.492l2.828-6.523h2.547V102h-1.937v-4.094c0-.614.06-1.443.179-2.484L102.838 102h-2.524v-8.703h1.93zm9.69 0v4.031c0 .5-.062 1.33-.187 2.492l2.828-6.523h2.547V102h-1.938v-4.094c0-.614.06-1.443.18-2.484L112.528 102h-2.523v-8.703h1.929zM68.927 33.641V3.936c0-.567-.46-1.027-1.027-1.027H2.1c-.567 0-1.027.46-1.027 1.027V33.64A2.011 2.011 0 000 35.418v2.108c0 .77.436 1.44 1.073 1.777v26.761c0 .567.46 1.027 1.027 1.027h65.8c.567 0 1.027-.46 1.027-1.027V39.303A2.011 2.011 0 0070 37.526v-2.108c0-.77-.436-1.44-1.073-1.777zM66.486 4.963c-.412.604-1.171 1.313-2.373 2.068l-.044.028a17.047 17.047 0 01-.315.19l-.169.099-.138.08-.138.076-.173.096-.032.017c-.148.08-.303.16-.46.241l-.128.065-.185.091-.172.084a23.06 23.06 0 01-.834.385l-.068.03c-.42.184-.866.369-1.342.553-.615.239-1.271.475-1.973.707A57.443 57.443 0 0151.84 11.4a1.047 1.047 0 00-.103.015c-2.045.428-4.197.78-6.397 1.046-.028.004-.055.01-.082.015A87.003 87.003 0 0135 13.077a87.05 87.05 0 01-10.257-.6c-.027-.006-.054-.012-.082-.015a75.83 75.83 0 01-6.397-1.046 1.017 1.017 0 00-.103-.016 57.48 57.48 0 01-6.103-1.627 40.953 40.953 0 01-1.973-.707 33.528 33.528 0 01-1.342-.552l-.068-.031a29.615 29.615 0 01-.666-.304l-.168-.08-.172-.084c-.062-.03-.124-.06-.184-.091l-.128-.065c-.156-.08-.309-.16-.456-.24-.012-.006-.025-.012-.036-.019-.06-.031-.116-.063-.173-.095l-.138-.077-.139-.08a18.083 18.083 0 01-.169-.098l-.1-.06a15.709 15.709 0 01-.214-.131l-.045-.028c-1.202-.755-1.961-1.463-2.372-2.068h62.97zM3.126 7.569c.317.274.68.553 1.092.835 1.09.755 2.545 1.54 4.476 2.325C8.692 17.18 6.81 24.359 5.2 29.32a1.027 1.027 0 101.953.634c1.594-4.911 3.444-11.948 3.584-18.461.22.076.445.153.676.229a58.01 58.01 0 005.326 1.467c-2.17 6.735-5.71 12.287-8.361 15.824a1.027 1.027 0 101.643 1.232c2.774-3.7 6.487-9.532 8.739-16.629 1.414.277 2.87.518 4.356.72-2.175 5.33-6.527 10.82-9.916 14.6a1.027 1.027 0 101.53 1.371c6.318-7.048 9.188-12.33 10.49-15.71 3.174.35 6.463.533 9.779.533s6.605-.183 9.779-.534c2.22 5.775 6.89 11.696 10.499 15.721a1.027 1.027 0 001.53-1.37c-3.393-3.784-7.749-9.277-9.925-14.61a76.495 76.495 0 004.356-.72c2.254 7.104 5.974 12.942 8.753 16.646a1.025 1.025 0 001.437.205c.454-.34.546-.984.205-1.437-2.656-3.541-6.201-9.1-8.374-15.842a58.058 58.058 0 005.326-1.467c.23-.076.455-.153.676-.23.14 6.51 1.988 13.543 3.58 18.45a1.027 1.027 0 001.954-.633c-1.609-4.959-3.488-12.133-3.49-18.581 1.93-.785 3.385-1.57 4.476-2.325.412-.282.775-.561 1.091-.835v25.839h-5.696c-1.109 0-2.01.901-2.01 2.01v2.108c0 .546.22 1.041.574 1.404a150.237 150.237 0 00-2.074 6.832H12.333a148.83 148.83 0 00-2.074-6.832c.355-.363.575-.858.575-1.404v-2.108c0-1.108-.902-2.01-2.01-2.01H3.127V7.568zM2.055 37.482v-2.02H8.78v2.02H2.054zm5.284 27.221a.652.652 0 01-.573.334H3.127V39.536h.984c3.74 12.663 4.947 22.043 3.227 25.167zm5.035.334V59.37c0-1.22.993-2.213 2.214-2.213h5.333c1.22 0 2.213.993 2.213 2.213v5.668h-9.76zm11.814 0V59.37c0-1.22.993-2.213 2.214-2.213h5.333c1.22 0 2.213.993 2.213 2.213v5.668h-9.76zm11.814 0V59.37c0-1.22.994-2.213 2.214-2.213h5.333c1.22 0 2.214.993 2.214 2.213v5.668h-9.76zm21.575 0h-9.76V59.37c0-1.22.993-2.213 2.213-2.213h5.333c1.22 0 2.214.993 2.214 2.213v5.668zm2.054 0V59.37a4.272 4.272 0 00-4.268-4.267H50.03a4.258 4.258 0 00-3.24 1.495 4.258 4.258 0 00-3.24-1.495h-5.334a4.259 4.259 0 00-3.24 1.495 4.259 4.259 0 00-3.241-1.495h-5.333a4.259 4.259 0 00-3.24 1.495 4.259 4.259 0 00-3.241-1.495h-5.333a4.272 4.272 0 00-4.268 4.267v5.668h-.877c2.081-5.26-.893-17.612-3.19-25.501h2.045c.97 2.947 2.24 7.096 3.213 11.31a1.027 1.027 0 102-.462c-.198-.862-.41-1.721-.628-2.568h44.236c-.22.855-.434 1.722-.634 2.593a1.027 1.027 0 102.001.462c.974-4.223 2.246-8.382 3.219-11.335h2.045c-2.298 7.889-5.272 20.24-3.19 25.501h-.93zm7.243 0h-3.638a.652.652 0 01-.573-.334c-1.72-3.124-.513-12.504 3.227-25.167h.984v25.501zm1.073-27.555H61.22v-2.02h6.726v2.02z" fill="#fff"/></svg>